<svg width="134" height="47" viewBox="0 0 134 47" fill="none" xmlns="http://www.w3.org/2000/svg">
    <path d="M69.913 47c-19.224 0-37.075-2.384-52.18-6.812-8.925-2.384-11.328-2.724-13.045-2.724H2.972c-1.03 0-2.06-.681-2.403-1.363-.687-.68-.687-2.043-.344-2.724.344-1.363 1.03-3.747 1.374-6.471C5.032 11.239 11.554 1.362 34.554 1.362c7.553 0 16.478 1.022 27.807 3.066C73.689 6.47 83.988 7.493 93.257 7.493c19.91 0 29.522-4.768 32.612-6.812.686-.34 1.03-.681 1.716-.681 1.373 0 2.403.681 3.09 2.043 2.403 6.13 5.836 18.051 0 27.928-4.12 7.493-12.702 12.26-25.06 14.304C100.466 45.297 87.077 47 69.913 47z" fill="#fff"/>
    <path d="M105.272 42.911c-16.478 2.725-53.897 5.79-87.196-4.087C6.405 35.42 5.718 36.1 2.972 36.1c-1.03 0-1.717-1.022-1.373-2.044.343-1.362 1.03-3.405 1.716-6.47C7.778 6.468 17.39-1.705 62.017 6.128c42.225 7.152 59.389-1.022 64.538-4.087.687-.681 2.06-.34 2.403.681 2.747 7.493 11.672 34.399-23.686 40.188z" fill="#ED3D7F"/>
    <path d="M28.375 24.863c0 1.022-.687 2.043-1.716 2.724-1.03.682-2.06.682-3.433.682-2.403 0-3.776-.681-5.15-1.703-1.373-1.363-2.06-2.725-2.06-4.768 0-1.703.687-3.065 2.06-4.087 1.373-1.022 2.747-1.703 4.463-1.703 1.373 0 2.403.34 3.09.681 1.03.681 1.716 1.703 1.716 2.725 0 .68 0 1.021-.343 1.362-.687.34-1.03.681-1.717.681H24.6c0-1.022 0-1.362-.343-2.043-.344-.681-.687-.681-1.717-.681-.687 0-1.373.34-2.06 1.021-.343.681-.686 1.362-.686 2.044 0 1.362.343 2.384 1.373 3.065.686.681 2.06 1.022 3.433 1.022 1.373 0 2.746-.682 3.09-2.044.343 0 .686.34.686 1.022zM44.166 23.16c0 1.703-.686 2.725-2.403 3.746-1.373.681-2.403 1.022-3.776 1.022-2.06 0-3.776-.34-5.493-1.362-1.716-1.022-2.746-2.725-2.746-4.768 0-1.703.687-3.406 2.403-4.428 1.373-1.022 3.09-1.362 5.15-1.362 1.372 0 2.402.34 3.432.681 1.373.681 2.06 1.362 2.06 2.384 0 1.362-.343 2.043-1.373 2.043-.343 0-.687 0-1.03-.34-.343-.34-.343-.34-.343-.681v-.34c-.687-.341-1.373-.341-2.06-.341-2.403 0-3.776 1.021-3.776 3.065 0 1.703 1.373 2.724 3.776 2.724 1.03 0 1.716-.34 2.403-1.021.687-.681 1.03-1.363 1.03-2.384.686-.34 1.03-1.022 1.373-1.703 1.03.68 1.373 1.703 1.373 3.065zM59.958 22.478c0 1.022-.344 2.043-1.03 3.065-.343.681-1.373 1.703-2.403 2.384-.343 0-.343.34-.687.34 0 0-.686-.34-1.03-.68 1.03-1.363 1.717-2.725 1.717-4.769 0-1.021-.343-1.703-1.03-2.724-.687-.681-1.716-1.363-2.746-1.363-.687 0-1.374.341-2.06.682.343 1.021.343 2.043.343 3.065 0 1.703-.343 3.065-.686 4.768 0 .34-.344.681-.687.681 0 0-.343 0-.343-.34-.687-1.022-1.717-1.363-2.747-1.363h-.686c-.343 0-.343 0-.343-.34v-.34c1.373-2.044 1.716-3.747 1.716-5.79 0-1.363-.343-2.385-.687-3.747l.687-.681.687-.681c.343 0 .343.34.686.34.687 1.362 1.03 1.703 1.373 2.384 1.373-.681 2.747-1.022 4.12-1.022 1.716 0 3.09.682 4.12 2.044 1.03 1.022 1.716 2.384 1.716 4.087zM73.689 24.862c0 1.022-.687 2.044-1.716 2.725-1.03.68-2.06.68-3.433.68-2.06 0-3.777-.68-4.806-1.702-1.374-1.362-2.06-2.725-2.06-4.428 0-1.702.686-3.065 2.06-4.086 1.373-1.022 2.746-1.703 4.462-1.703 1.374 0 2.403.34 3.09.68 1.03.682 1.373 1.363 1.373 2.385 0 .681 0 1.022-.343 1.362-.344.34-.687.681-1.373.681h-.687c0-1.021 0-1.362-.343-2.043-.343-.34-1.03-.681-1.717-.681-.686 0-1.373.34-2.06 1.021-.686.682-.686 1.363-.686 2.044 0 1.362.343 2.384 1.373 3.065.687.681 2.06 1.022 3.433 1.022 1.373 0 2.403-.681 3.09-2.044 0 0 .343.341.343 1.022zM88.793 22.137c0 2.044-.686 3.406-1.716 4.428-1.03 1.022-2.746 1.703-4.806 1.703-4.806 0-6.866-1.703-6.866-5.45 0-.68 0-1.362.344-2.383.343-2.044.686-3.406.686-4.087 1.03 0 2.746.34 5.15.68-1.03 1.704-1.374 2.726-1.374 2.726-.343 1.021-.686 2.043-.686 2.724 0 1.022.343 1.703 1.03 2.384.686.681 1.373 1.022 2.403 1.022.686 0 1.373-.34 2.06-.681.686-.34 1.03-1.022 1.03-1.703 0-1.022 0-2.044-.344-3.065l-.687-3.406c.344-.34.687-.681 1.374-.681.343 0 1.03 0 1.373.34l.686 2.725c0 1.022.343 2.043.343 2.724zM104.928 22.478c0 1.022-.343 2.043-1.03 3.065-.343.681-1.373 1.703-2.403 2.384-.343 0-.343.34-.686.34 0 0-.687-.34-1.03-.68 1.03-1.363 1.716-2.725 1.716-4.769 0-1.021-.343-1.703-1.029-2.724-.687-.681-1.717-1.363-2.747-1.363-.686 0-1.373.341-2.06.682.344 1.021.344 2.043.344 3.065 0 1.703-.343 3.065-.687 4.768 0 .34-.343.681-.686.681 0 0-.344 0-.344-.34-.686-1.022-1.716-1.363-2.746-1.363h-.687c-.343 0-.343 0-.343-.34v-.34c1.373-2.044 1.717-3.747 1.717-5.79 0-1.363-.344-2.385-.687-3.747l.687-.681.686-.681c.344 0 .344.34.687.34l1.03 1.022c1.373-.681 2.746-1.022 4.12-1.022 1.716 0 3.089.681 4.119 2.044 1.373 2.384 2.059 3.746 2.059 5.449zM119.003 29.289c0 1.703-1.03 2.724-2.746 3.746-1.373.681-3.09 1.022-4.806 1.022-1.374 0-2.747-.34-3.777-.681-1.373-.681-2.059-1.703-2.059-2.725 0-.681.343-.681 1.03-.681.343 1.362 1.716 1.703 3.776 1.703 1.03 0 2.059 0 2.746-.34 1.373-.341 1.717-1.022 1.717-1.704 0-.34-.344-.68-1.374-1.021h-2.403c-2.059 0-3.089-.682-3.089-1.703 0-.34 0-.681.343-1.022.343 0 .687.34 1.373.34h.343v.341c0 .34.344.34 1.03.34h2.747c1.373 0 2.403.341 3.089.682 1.717 0 2.06.681 2.06 1.703zm-1.716-10.218c0 .34 0 .681-.344 1.022-.343.34-.686.681-1.03.681-.343 0-1.029 0-1.373-.34-.343-.34-.686-.34-1.03-.34-.686 0-1.373.34-2.059.68-.687.34-1.03 1.022-1.03 1.703 0 .34 0 .681.343 1.022.343.34.687.34 1.03.34.686 0 1.373-.34 1.716-.68.687-.682 1.03-1.022 1.03-1.704v-.34c.344 0 .687.34 1.03.34.343 0 .687 0 1.03-.34 0 1.362-.687 2.384-2.06 3.406-1.373.68-2.746 1.362-4.463 1.362-1.029 0-1.716-.34-2.403-1.022-.686-.681-.686-1.362-.686-2.384 0-1.362.686-2.724 1.716-3.746 1.373-1.363 2.747-2.044 4.806-2.044 1.03 0 2.06.34 2.747.681.343 0 1.03.682 1.03 1.703zm2.746-2.384c0 .681-.343.681-1.373.681 0-.68-.344-1.021-1.03-1.021-.343 0-.687.34-1.03 1.021-.343-.34-.343-.68-.687-.68.344-1.022 1.03-1.704 2.06-1.704.343 0 1.03.341 1.373.681.344 0 .687.341.687 1.022zM90.51 32.353l-.687.681h-.343v-.34c0-.34 0-.34.343-.34h.344c0-.341 0-.341.343 0 0-.341 0 0 0 0zM94.286 32.013c0 .34 0 .681-.343.681s-.686.34-1.03.34c-.686 0-1.03 0-1.373-.34-.343-.34-.687-.681-.687-1.362 0-.34.344-.681.687-1.022.343-.34.687-.34 1.373-.34.344 0 .687 0 1.03.34 0-.34 0-.34 0 0v.34h-.686v-.68l-.344-.341c-.343 0-.343 0-.686.34 0 .341-.344.341-.344.682 0 .34 0 .68.344 1.021.343.341.686.341 1.03.341h1.03c0-.34 0-.34 0 0zM98.749 31.332c0 .341-.343.682-.687 1.022-.343.34-.686.34-1.03.34-.686 0-1.03 0-1.373-.34-.686-.34-.686-.68-.686-1.362 0-.681.343-1.022.686-1.362.343-.34 1.03-.34 1.373-.34.344 0 .687 0 1.03.34.344 0 .687.34.687.68 0 .341 0 .682-.343.682h-.344v-.34h-.686c-.687 0-1.03.34-1.03.68 0 .682.343.682 1.03.682.343 0 .343 0 .686-.34.344-.341.344-.341.344-.682.343 0 .343-.34.343-.34v.68zM105.271 31.332c0 .34 0 .681-.343 1.021-.343.341-.343.682-.343.682-.343 0-.343 0-.687-.34 0 0 0-.342.344-.682v-.681c0-.34 0-.34-.344-.681-.343-.34-.343-.34-.686-.34h-.344c0 .34.344.34.344.68s-.344 1.022-.687 1.362h-.686c.343-.34.343-.68.343-1.021 0-.34 0-.681-.343-.681-.344-.34-.344-.34-.687-.34-.343 0-.343 0-.687.34v1.021c0 .341 0 1.022-.343 1.363-.343-.34-.343-.34-.686-.34h-.344c.344-.682.344-1.023.344-1.704 0-.34 0-.68-.344-1.021v-.341h.344s.343 0 .343.34c.343-.34.686-.34 1.03-.34.343 0 .686 0 1.03.34l.343-.34h.686c.344 0 1.03.34 1.03.681 1.03 0 1.373.34 1.373 1.022z" fill="#fff"/>
</svg>
